<svg width="60" height="60" viewBox="0 0 60 60" fill="none" xmlns="http://www.w3.org/2000/svg">
<rect x="0.000976562" width="60" height="60" rx="10" fill="url(#paint0_linear_675_208)"/>
<g clip-path="url(#clip0_675_208)">
<path d="M21.3598 24.5676V38H20.1088V25.4748H19.2839V38H18.0012V24.5676H21.3598Z" fill="white"/>
<path d="M25.5661 24.5676V30.9744H24.3151V25.4537H23.4901V37.1104H24.3151V31.6354H25.5661V38H22.2074V24.5676H25.5661Z" fill="white"/>
<path d="M29.7723 38H26.4182V22.5H27.6692V24.5676H29.7995V25.4572H27.6692V37.1104H28.5213V26.0972H29.7723V38Z" fill="white"/>
<path d="M32.306 38V25.4748H31.9071V24.5641H33.5842V38H32.306V38Z" fill="white"/>
<path d="M35.6873 32.0469V37.0893H36.5122V32.068H37.7904V38H34.4363V32.1312C34.4363 31.4069 35.1842 30.8302 36.1134 30.8302C36.3536 30.8302 36.5122 30.686 36.5122 30.5208V25.6823C36.5122 25.517 36.3536 25.3729 36.1134 25.3729C35.8731 25.3729 35.6873 25.517 35.6873 25.6823V30.4786H34.4363V25.7667C34.4363 25.0423 35.1842 24.4656 36.1134 24.4656C37.0425 24.4656 37.7904 25.0458 37.7904 25.7667V30.4153C37.7904 31.1396 37.0425 31.7374 36.1134 31.7374C35.8731 31.7374 35.6873 31.8605 35.6873 32.0469V32.0469Z" fill="white"/>
<path d="M40.3196 32.4618C40.1066 32.4618 39.9207 32.627 39.9207 32.7923V38H38.6697V32.8767C38.6697 32.1523 39.4176 31.5757 40.3196 31.5757C40.5598 31.5757 40.7457 31.4315 40.7457 31.2662V25.4537H39.9207V31.2416H38.6697V24.5676H42.0012V31.1783C42.0012 31.8816 41.2533 32.4583 40.3241 32.4583L40.3196 32.4618Z" fill="white"/>
</g>
<defs>
<linearGradient id="paint0_linear_675_208" x1="4.50098" y1="4.8" x2="53.801" y2="67.7" gradientUnits="userSpaceOnUse">
<stop stop-color="#E4FC80"/>
<stop offset="1" stop-color="#647A00"/>
</linearGradient>
<clipPath id="clip0_675_208">
<rect width="24" height="15.5" fill="white" transform="translate(18.0012 22.5)"/>
</clipPath>
</defs>
</svg>
