<svg width="165" height="60" viewBox="0 0 165 60" fill="none" xmlns="http://www.w3.org/2000/svg">
<rect x="1" y="1" width="163" height="58" rx="4" stroke="white" stroke-width="2"/>
<path d="M97.4703 27V25H93.8503V13H91.6503V27H97.4703ZM102.765 27V13H100.565V27H102.765ZM108.373 27V16.4L110.013 27H111.853L113.493 16.4V27H115.573V13H112.473L111.013 23.16L109.553 13H106.453V27H108.373ZM121.455 27V13H119.255V27H121.455ZM129.062 27V15H131.362V13H124.562V15H126.862V27H129.062ZM140.468 27V25H136.668V20.7H139.688V18.7H136.668V15H140.468V13H134.468V27H140.468ZM147.055 27C149.235 27 150.335 25.84 150.335 23.54V16.46C150.335 14.16 149.235 13 147.055 13H143.695V27H147.055ZM145.895 15H147.015C147.755 15 148.135 15.46 148.135 16.36V23.64C148.135 24.54 147.755 25 147.015 25H145.895V15ZM98.7441 47V45H94.9441V40.7H97.9641V38.7H94.9441V35H98.7441V33H92.7441V47H98.7441ZM105.332 47C107.512 47 108.612 45.84 108.612 43.54V36.46C108.612 34.16 107.512 33 105.332 33H101.972V47H105.332ZM104.172 35H105.292C106.032 35 106.412 35.46 106.412 36.36V43.64C106.412 44.54 106.032 45 105.292 45H104.172V35ZM114.337 47V33H112.137V47H114.337ZM121.944 47V35H124.244V33H117.444V35H119.744V47H121.944ZM129.549 47V33H127.349V47H129.549ZM133.077 43.68C133.077 45.92 134.257 47.2 136.417 47.2C138.577 47.2 139.757 45.92 139.757 43.68V36.32C139.757 34.08 138.577 32.8 136.417 32.8C134.257 32.8 133.077 34.08 133.077 36.32V43.68ZM137.557 43.82C137.557 44.74 137.177 45.2 136.417 45.2C135.657 45.2 135.277 44.74 135.277 43.82V36.18C135.277 35.26 135.657 34.8 136.417 34.8C137.177 34.8 137.557 35.26 137.557 36.18V43.82ZM145.245 47V36.78L147.965 47H150.185V33H148.225V41.38L146.005 33H143.285V47H145.245Z" fill="white"/>
<path d="M38.0458 16H22.3259L16 43.952H30.0277C41.2641 43.952 47.6928 38.5296 49.5668 29.9273C51.1167 22.8774 48.784 16 38.0458 16ZM31.0952 24.5874L39.5324 29.5523L28.462 36.1597L31.0952 24.5874Z" fill="white"/>
</svg>
