<svg width="60" height="60" viewBox="0 0 60 60" fill="none" xmlns="http://www.w3.org/2000/svg">
<rect x="0.000488281" width="60" height="60" rx="10" fill="url(#paint0_linear_675_348)"/>
<g clip-path="url(#clip0_675_348)">
<path d="M40.3451 29.0618C40.524 28.8559 41.2713 29.5001 40.9914 29.8854C40.5385 30.503 39.82 29.4442 39.6123 29.1265C39.52 28.9854 39.4104 28.8648 39.2776 28.7559C39.0151 28.5295 38.7323 28.4001 38.4236 28.3648C37.6994 28.2854 36.3867 29.0206 36.3578 29.8442C36.3405 30.3648 36.8512 30.6912 37.1051 31.0912C37.5234 31.7471 37.7629 32.6177 37.835 33.3942C37.9649 34.8412 37.6677 36.453 36.9233 37.7648C36.2165 39.003 34.4277 40.6706 33.1178 39.1559C33.7468 38.5442 34.2517 37.8559 34.6383 37.0971C35.0249 36.3383 35.2701 35.6001 35.374 34.8883C35.4779 34.1765 35.4317 33.5412 35.2355 32.9883C35.0393 32.4354 34.6873 32.053 34.1767 31.8383C33.6544 31.6265 33.1495 31.5589 32.6648 31.6383C32.1801 31.7177 31.7445 31.9118 31.3607 32.2177C30.9741 32.5236 30.6567 32.9354 30.4086 33.4471C30.1605 33.9618 30.0162 34.5442 29.9758 35.1971C29.9355 35.7971 29.9874 36.453 30.1316 37.1677C30.2759 37.8824 30.576 38.5971 31.0347 39.3177C30.7981 39.5442 30.5615 39.7148 30.3192 39.8265C30.0768 39.9412 29.8258 39.9648 29.5633 39.8971C29.0237 39.7589 28.6342 39.4824 28.3601 39.1089C28.3573 39.0971 28.3515 39.0883 28.3486 39.0765C28.3371 39.0677 28.3284 39.0589 28.3169 39.0471C28.112 38.7471 27.9764 38.3883 27.8985 37.9912C27.7802 37.2354 27.8177 36.1912 28.0168 35.053C28.1842 34.1971 28.4294 33.3471 28.6689 32.6236C28.7064 32.5236 28.7439 32.4206 28.7843 32.3206C29.67 30.0706 30.7606 27.5765 31.355 26.2324C32.4196 26.2736 33.4611 26.2706 34.4277 26.1618C40.3942 25.4736 39.6527 18.5001 39.6527 18.5001C36.7733 22.2442 30.7548 21.6001 26.6867 22.5971C23.0024 23.5001 18.5419 26.9001 17.6966 31.0942C16.7185 35.9471 19.7018 36.2383 19.7018 36.2383L22.584 33.8001C18.9112 33.353 18.9112 28.853 21.6608 26.9295C22.9158 26.0501 24.7941 25.9177 26.8714 25.9854C26.3174 27.8912 24.8922 33.0089 24.7133 35.653C24.4998 38.8324 25.2182 41.0883 28.5073 41.6559C28.6573 41.6824 29.1738 41.6971 29.2747 41.6883C29.2747 41.6883 29.2805 41.6883 29.2834 41.6883C30.1057 41.6177 30.9568 41.1765 31.8397 40.3589C32.2984 40.9471 32.7831 41.3295 33.3024 41.5089C35.6798 42.3383 37.6215 40.9059 38.8247 38.9618C38.8247 38.9618 39.3844 38.0824 39.8922 36.7736C39.9643 36.5912 40.0307 36.4089 40.0913 36.2236C40.5096 34.9883 40.827 33.4677 40.6279 31.9618C40.7635 31.9412 40.8962 31.903 41.0347 31.8471C41.8772 31.5001 42.4282 30.8177 42.4975 29.8854C42.584 28.7001 41.2799 27.9854 40.3451 29.0618V29.0618ZM32.2926 37.5765C32.2926 37.5765 32.2869 37.5501 32.2724 37.5354C32.1686 37.2942 32.0936 37.053 32.0474 36.8059C31.932 36.1824 31.782 35.053 32.1513 34.4912C32.4427 34.0501 33.0053 33.9854 33.2765 34.4883C33.5073 34.9148 33.1726 35.6265 33.0168 36.0383C32.8322 36.5177 32.5927 37.0324 32.2897 37.5795L32.2926 37.5765Z" fill="white"/>
</g>
<defs>
<linearGradient id="paint0_linear_675_348" x1="4.50049" y1="4.8" x2="53.8005" y2="67.7" gradientUnits="userSpaceOnUse">
<stop stop-color="#EDB3B2"/>
<stop offset="1" stop-color="#DC489A"/>
</linearGradient>
<clipPath id="clip0_675_348">
<rect width="25" height="23.2471" fill="white" transform="translate(17.5004 18.5001)"/>
</clipPath>
</defs>
</svg>
