<svg width="61" height="60" viewBox="0 0 61 60" fill="none" xmlns="http://www.w3.org/2000/svg">
<rect x="0.978027" width="60" height="60" rx="10" fill="url(#paint0_linear_675_218)"/>
<g clip-path="url(#clip0_675_218)">
<path d="M17.503 24.5425V37.699H20.7282V36.8251V31.472H19.5089V36.8251H18.7223V25.4199H19.5089V30.8517H20.7282V24.5425H17.503Z" fill="white"/>
<path d="M24.753 36.8251V26.119H23.5337V36.8251H22.7471V25.4199H24.753V24.5425H22.7471V22.596H21.5279V36.8251V37.699H24.753V36.8251Z" fill="white"/>
<path d="M13.4782 24.5425V37.699H14.6974V25.4199H15.484V37.699H16.7033V24.5425H13.4782Z" fill="white"/>
<path d="M42.8146 37.7058C42.4606 37.7058 42.1372 37.6167 41.8706 37.466C41.5822 37.6647 41.2064 37.7915 40.7956 37.7915C39.8997 37.7915 39.1699 37.2158 39.1699 36.5132V31.9552C39.1699 31.2527 39.8997 30.6804 40.7956 30.6804C40.931 30.6804 41.0665 30.6941 41.1933 30.7215V25.6495C41.1933 25.4781 41.0141 25.3376 40.7956 25.3376C40.5771 25.3376 40.3979 25.4781 40.3979 25.6495V30.348H39.1699V25.7317C39.1699 25.0292 39.8997 24.4568 40.7956 24.4568C41.6914 24.4568 42.4212 25.0292 42.4212 25.7317V36.5132C42.4212 36.6846 42.6004 36.8251 42.8189 36.8251V37.7058H42.8146ZM41.1889 31.8764C41.1889 31.7051 41.0097 31.5646 40.7912 31.5646C40.5727 31.5646 40.3935 31.7051 40.3935 31.8764V36.5955C40.3935 36.7668 40.5727 36.9073 40.7912 36.9073C41.0097 36.9073 41.1889 36.7668 41.1889 36.5955V31.8764Z" fill="white"/>
<path d="M30.6919 37.7059C30.338 37.7059 30.0146 37.6167 29.748 37.466C29.4596 37.6647 29.0837 37.7915 28.673 37.7915C27.7771 37.7915 27.0473 37.2158 27.0473 36.5132V25.7317C27.0473 25.0292 27.7771 24.4568 28.673 24.4568C28.8084 24.4568 28.9439 24.4706 29.0706 24.498V22.5H30.2986V36.5132C30.2986 36.6846 30.4778 36.8251 30.6963 36.8251V37.7059H30.6919ZM29.0663 25.6529C29.0663 25.4815 28.8871 25.341 28.6686 25.341C28.4501 25.341 28.2709 25.4815 28.2709 25.6529V36.5955C28.2709 36.7668 28.4501 36.9073 28.6686 36.9073C28.8871 36.9073 29.0663 36.7668 29.0663 36.5955V25.6495V25.6529Z" fill="white"/>
<path d="M38.3746 25.7317V31.5577H36.3556V36.5921C36.3556 36.7634 36.5347 36.9039 36.7532 36.9039C36.9718 36.9039 37.1509 36.7634 37.1509 36.5921V32.178H38.3789V36.5132C38.3789 37.2158 37.6491 37.7915 36.7532 37.7915C35.8574 37.7915 35.1276 37.2158 35.1276 36.5132V25.7317C35.1276 25.0292 35.8574 24.4568 36.7532 24.4568C37.6491 24.4568 38.3789 25.0292 38.3789 25.7317H38.3746ZM37.1466 25.6495C37.1466 25.4781 36.9674 25.3376 36.7489 25.3376C36.5304 25.3376 36.3512 25.4781 36.3512 25.6495V30.677H37.1422V25.6495H37.1466Z" fill="white"/>
<path d="M46.8525 24.4603C47.7484 24.4603 48.4782 25.0326 48.4782 25.7351V37.7058H47.2502V25.6495C47.2502 25.4781 47.071 25.3376 46.8525 25.3376C46.634 25.3376 46.4548 25.4781 46.4548 25.6495V37.7058H45.2268V25.6495C45.2268 25.4781 45.0477 25.3376 44.8292 25.3376C44.6107 25.3376 44.4315 25.4781 44.4315 25.6495V37.7058H43.2035V25.7317C43.2035 25.5604 43.0243 25.4199 42.8058 25.4199V24.5391C43.1598 24.5391 43.4832 24.6282 43.7498 24.779C44.0382 24.5802 44.414 24.4568 44.8248 24.4568C45.205 24.4568 45.559 24.5631 45.8343 24.7344C46.114 24.5597 46.4636 24.4568 46.8438 24.4568L46.8525 24.4603Z" fill="white"/>
<path d="M34.3366 25.7317V31.5577H33.1086V25.6495C33.1086 25.4781 32.9294 25.3376 32.7109 25.3376C32.4924 25.3376 32.3132 25.4781 32.3132 25.6495V37.7058H31.0852V25.7317C31.0852 25.5604 30.9061 25.4199 30.6876 25.4199V24.5391C31.0415 24.5391 31.3649 24.6282 31.6315 24.779C31.9199 24.5802 32.2958 24.4568 32.7065 24.4568C33.6024 24.4568 34.3322 25.0292 34.3322 25.7317H34.3366Z" fill="white"/>
</g>
<defs>
<linearGradient id="paint0_linear_675_218" x1="5.47803" y1="4.8" x2="54.778" y2="67.7" gradientUnits="userSpaceOnUse">
<stop stop-color="#92D97B"/>
<stop offset="1" stop-color="#259E2F"/>
</linearGradient>
<clipPath id="clip0_675_218">
<rect width="35" height="15.2915" fill="white" transform="translate(13.4782 22.5)"/>
</clipPath>
</defs>
</svg>
