<svg width="61" height="61" viewBox="0 0 61 61" fill="none" xmlns="http://www.w3.org/2000/svg">
<rect x="0.976562" y="0.165771" width="60" height="60" rx="10" fill="url(#paint0_linear_675_231)"/>
<g clip-path="url(#clip0_675_231)">
<path d="M21.1125 27.5421C21.7804 26.8542 22.2702 26.3088 22.5737 25.9098C22.8814 25.5109 22.853 25.1812 22.4887 24.9126C22.1244 24.6439 21.7116 24.591 21.2461 24.7497C20.7806 24.9085 20.1937 25.1079 19.4853 25.344C18.7769 25.5842 17.9836 25.861 17.1052 26.1826C16.2269 26.5001 15.3525 26.8135 14.4863 27.1107C13.6201 27.4119 12.9036 27.591 12.341 27.648C12.1548 27.6683 12.001 27.6927 11.8755 27.7294C11.9079 27.6887 11.9403 27.6439 11.9727 27.595C12.3086 27.1229 12.8267 26.5367 13.5229 25.8366C14.2192 25.1405 14.9963 24.4566 15.8545 23.7891C16.7126 23.1215 17.5059 22.5679 18.2386 22.1283C18.9712 21.6887 19.5905 21.4119 20.1046 21.2898C20.6146 21.1676 20.9749 21.1229 21.1773 21.1554C21.1894 21.1554 21.2016 21.1554 21.2177 21.1554C21.2096 21.2043 21.2177 21.2572 21.238 21.3101C21.2785 21.4159 21.2582 21.5869 21.1813 21.8271C21.3554 22.5598 21.7278 22.6819 22.3066 22.1934C22.3916 21.9573 22.4806 21.7782 22.5737 21.6561C22.6668 21.534 22.6992 21.302 22.6668 20.956C22.8166 20.7443 22.5454 19.979 22.2378 19.747C21.6792 19.5883 21.3877 19.6697 21.0801 19.8162C20.732 19.8936 20.3029 20.0971 19.7929 20.4309C19.2829 20.7647 18.6798 21.1921 17.9795 21.7172C17.6881 21.937 17.3845 22.169 17.0688 22.4173C16.8583 22.5557 16.6438 22.6982 16.4211 22.8488C14.9478 23.8501 13.693 24.8474 12.6729 25.8284C11.8067 26.667 11.3372 27.3467 11.2764 27.8678C11.1671 28.1405 11.2036 28.401 11.3857 28.6371C11.6772 29.0116 12.086 29.0157 12.6122 28.6493C12.6729 28.6045 12.7377 28.5638 12.8065 28.5191C12.9198 28.4865 13.0372 28.4499 13.1586 28.4092C14.2273 28.0387 15.3606 27.595 16.5588 27.0903C17.7164 26.5978 18.7405 26.1866 19.631 25.8447C20.1775 25.633 20.6227 25.4824 20.9708 25.3847C21.0842 25.3685 21.1894 25.3562 21.2866 25.3481C21.3473 25.344 21.3999 25.34 21.4444 25.3359C21.4201 25.3888 21.3999 25.458 21.3877 25.5435C21.3594 25.7348 21.2177 26.0564 20.9749 26.5041C20.7846 26.7321 20.562 26.9926 20.3029 27.2898C19.5744 28.1364 18.6798 29.1826 17.6071 30.4404C16.494 31.747 15.4537 33.0577 14.4944 34.3603C13.5027 35.7077 12.766 36.8026 12.2965 37.6249C12.2843 37.6534 12.2722 37.6778 12.26 37.7063C11.746 38.3372 11.3372 38.7809 11.0376 39.0252C10.8474 39.5869 11.0052 39.709 11.5031 39.3915C11.6853 39.0089 12.0577 38.4471 12.6324 37.7063C13.2032 36.9655 13.8103 36.1839 14.4458 35.3535C15.0854 34.5272 15.8342 33.595 16.7045 32.5652C17.5707 31.5353 18.356 30.6113 19.0481 29.7972C19.7444 28.9831 20.4244 28.2301 21.0963 27.5421H21.1125ZM11.3493 27.7497C11.4788 27.3712 11.9605 26.7728 12.7943 25.9668C13.4744 25.3074 14.2718 24.6439 15.1744 23.9845C14.5227 24.5421 13.9115 25.0957 13.3448 25.6493C12.6324 26.3454 12.0577 26.9234 11.6205 27.3874C11.5031 27.5096 11.4141 27.6317 11.3493 27.7497V27.7497ZM16.4981 26.9275C15.6925 27.2572 14.9194 27.5381 14.1706 27.7701C14.3284 27.6927 14.4904 27.6154 14.6604 27.5381C15.4902 27.1554 16.3442 26.8054 17.2145 26.4838C17.9917 26.1988 18.7041 25.9628 19.3558 25.7714C18.5179 26.1012 17.5667 26.4879 16.494 26.9275H16.4981ZM16.5507 32.4268C15.7006 33.4729 14.9478 34.4051 14.288 35.2151C13.8872 35.7077 13.5027 36.188 13.1263 36.648C13.5229 36.017 14.0168 35.2925 14.6118 34.4784C15.563 33.1717 16.5992 31.8651 17.7205 30.5706C18.6838 29.4512 19.5177 28.5231 20.2301 27.766C19.8253 28.3766 19.3679 28.9953 18.8538 29.614C18.1698 30.4363 17.4047 31.3725 16.5547 32.4227" fill="white"/>
<path d="M25.7634 34.0957C25.6136 33.5462 25.4679 32.842 25.3262 31.9831C25.1846 31.1242 25.0631 30.1554 24.9579 29.0849C24.8931 28.4417 24.8446 27.8067 24.8041 27.1798C25.1158 26.9478 25.4153 26.7321 25.6905 26.5367C26.1844 26.1866 26.5891 25.9139 26.913 25.7267C27.2368 25.5394 27.508 25.3969 27.7306 25.3033C27.9532 25.2097 28.1152 25.0754 28.2244 24.9003C28.0018 24.3671 27.6375 24.1717 27.1396 24.3101C27.1235 24.3956 27.087 24.5096 27.0344 24.6602C26.9818 24.8067 26.828 25.0184 26.5689 25.2911C26.3099 25.5638 25.9496 25.8895 25.4801 26.2721C25.2615 26.4512 25.0267 26.6344 24.7757 26.8298C24.7596 26.5326 24.7434 26.2355 24.7312 25.9424C24.6907 24.9125 24.6948 24.0048 24.7474 23.2111C24.8 22.4173 24.8405 21.8515 24.8688 21.5136C24.8972 21.1717 24.9134 20.8868 24.9174 20.6507C24.5855 20.0808 24.2536 20.0808 23.9217 20.6507C23.9217 20.7443 23.9257 20.8461 23.9338 20.956C23.8852 20.8176 23.8933 20.6629 23.8286 20.5326C23.8367 20.6995 23.8448 20.8705 23.8529 21.0374C23.8448 21.0374 23.8367 21.0374 23.8286 21.0374C23.7921 20.8827 23.7598 20.7321 23.7274 20.5774H23.7071C23.7071 20.5774 23.699 20.5978 23.699 20.6059C23.699 20.7158 23.7355 20.8216 23.7314 20.9397C23.7233 21.0537 23.7476 21.1676 23.7679 21.2816C23.7557 21.3182 23.7436 21.363 23.7314 21.4119C23.7395 21.6276 23.8083 22.2382 23.9379 23.2477C23.946 23.3128 23.9541 23.3779 23.9621 23.4431C23.9662 23.5082 23.9743 23.5733 23.9783 23.6385H23.9864C24.1119 24.5747 24.2617 25.6982 24.4357 27.013C24.4357 27.0374 24.4438 27.0577 24.4438 27.0822C24.2576 27.2246 24.0593 27.3712 23.8569 27.5218C23.2416 27.9777 22.6223 28.4539 21.999 28.9465C21.3797 29.439 20.6997 29.9722 19.967 30.5421C19.2344 31.1161 18.7162 31.5598 18.4167 31.8773C18.1172 32.1948 17.7205 32.5448 17.2267 32.9193C16.7328 33.7741 16.9069 33.9492 17.7488 33.4485C18.1172 32.9438 18.4693 32.5571 18.8012 32.2843C19.1332 32.0116 19.6229 31.5435 20.2706 30.88C20.9182 30.2165 21.5537 29.6466 22.1771 29.1622C22.8004 28.6819 23.4197 28.2097 24.031 27.7497C24.1888 27.6317 24.3426 27.5177 24.4924 27.4037C24.6017 28.2016 24.7191 29.0035 24.8486 29.8176C24.9417 30.6073 25.0308 31.34 25.1239 32.0075C25.2453 32.8746 25.3505 33.595 25.4396 34.1649C25.5286 34.7348 25.5691 35.1581 25.5529 35.4349C25.5408 35.6832 25.6298 35.7606 25.8201 35.671C25.7998 35.7199 25.8565 35.8216 25.9982 35.9763C26.2937 35.8094 26.3665 35.5937 26.2127 35.321C26.0589 35.0523 25.9091 34.6412 25.7594 34.0917L25.7634 34.0957ZM24.1929 23.6547C24.1929 23.6547 24.2333 23.6588 24.2536 23.6629C24.3345 24.3427 24.4034 25.1039 24.4722 25.9465C24.4924 26.1907 24.5126 26.439 24.5329 26.6873C24.3912 25.5109 24.2779 24.5014 24.1969 23.6547" fill="white"/>
<path d="M30.0541 25.1364C30.2403 24.6642 30.0905 24.5095 29.6007 24.6724C29.3862 24.9614 29.1676 25.3399 28.949 25.8162C28.7304 26.2924 28.4835 26.8827 28.2083 27.591C27.933 28.3033 27.678 29.0401 27.4311 29.8053C27.4149 29.8542 27.4028 29.899 27.3866 29.9437C27.4068 29.496 27.4068 29.1093 27.3947 28.7836C27.3744 28.2748 27.4109 27.709 27.4999 27.0821C27.253 26.1256 27.0061 26.1256 26.7632 27.0903C26.8523 27.7131 26.8928 28.2748 26.8847 28.7836C26.8766 29.2884 26.8847 29.9397 26.9049 30.7334C26.9089 30.9247 26.913 31.0998 26.913 31.2626C26.8482 31.4295 26.7794 31.5882 26.7147 31.7389C26.4799 32.264 26.5285 32.6181 26.8523 32.8053C27.0951 32.9437 27.2409 32.9234 27.2854 32.7483C27.5404 32.6303 27.6456 32.3291 27.5971 31.8488C27.5444 31.3196 27.6052 30.6683 27.7833 29.8949C27.9614 29.1215 28.184 28.3888 28.4633 27.6886C28.7385 26.9926 29.0097 26.4349 29.2769 26.0197C29.544 25.6045 29.799 25.3074 30.05 25.1283" fill="white"/>
<path d="M29.4833 30.6439C29.5035 31.0794 29.6411 31.4336 29.9042 31.6982C30.1633 31.9627 30.4628 31.9872 30.7988 31.7633C31.1348 31.5394 31.3533 31.1812 31.4545 30.6805C31.5598 30.1798 31.6569 29.5733 31.75 28.861C31.7905 28.5353 31.835 28.2056 31.8755 27.8718C31.9241 28.1446 31.9807 28.3929 32.0455 28.6208C32.1669 29.0482 32.3289 29.3942 32.5353 29.6669C32.7417 29.9397 32.9846 30.0699 33.2639 30.0618C33.5796 29.5815 33.5472 29.207 33.1627 28.9424C33.1303 28.9912 33.0575 28.9994 32.9441 28.9709C32.8308 28.9424 32.6891 28.7511 32.5191 28.4051C32.3491 28.0591 32.2277 27.5991 32.1508 27.0333C32.1143 26.7484 32.0941 26.4634 32.09 26.1703C32.1629 25.6208 32.2277 25.1242 32.2884 24.6805C32.2965 24.6154 32.3086 24.5503 32.3167 24.4892C32.3491 24.4688 32.3734 24.4485 32.3896 24.4281C32.5231 24.4485 32.6729 24.363 32.8389 24.1636C32.8915 24.0821 32.9117 23.9682 32.9077 23.8176C32.9036 23.7077 32.8024 23.5896 32.6122 23.4675C32.6001 23.4309 32.5798 23.3983 32.5555 23.3698C32.6527 23.0686 32.4827 22.9261 32.0496 22.9465C31.6124 22.9668 31.4262 23.1988 31.4869 23.6507C31.491 23.6914 31.4991 23.7361 31.5031 23.7809C31.325 24.1188 31.1348 24.5462 30.9364 25.0591C30.7057 25.6493 30.4669 26.3006 30.224 27.0211C29.9771 27.7375 29.7869 28.4132 29.6573 29.0401C29.5238 29.6669 29.4671 30.2002 29.4873 30.6398L29.4833 30.6439ZM31.7176 26.7036C31.6772 26.9804 31.6326 27.2531 31.5841 27.5177C31.5922 27.42 31.6003 27.3182 31.6084 27.2124C31.6326 26.9356 31.6529 26.6262 31.6772 26.2843C31.6893 26.4268 31.7015 26.5652 31.7136 26.7036H31.7176ZM29.9812 29.0889C30.0823 28.4824 30.2685 27.8311 30.5397 27.1432C30.8109 26.4512 31.1226 25.865 31.4748 25.3847C31.5193 25.3196 31.5679 25.2626 31.6084 25.2056C31.6084 25.226 31.6084 25.2423 31.6084 25.2667C31.6124 25.3807 31.6205 25.4946 31.6245 25.6127C31.5841 26.2314 31.5395 26.7687 31.495 27.2165C31.4424 27.7172 31.3979 28.0998 31.3574 28.3603C31.3169 28.6208 31.2845 28.804 31.2562 28.9098C31.2481 28.9383 31.2481 28.9627 31.2562 28.9872C31.0983 29.5611 30.9243 30.0089 30.7259 30.3223C30.5074 30.6724 30.3819 30.8678 30.3535 30.9085C30.3212 30.9492 30.2766 30.9736 30.2159 30.9817C30.1552 30.9939 30.0742 30.8352 29.9771 30.5055C29.88 30.1758 29.88 29.7077 29.9812 29.1011" fill="white"/>
<path d="M35.2028 28.572C35.9517 27.192 36.6276 25.9872 37.2308 24.9573C37.8339 23.9275 38.3682 23.1663 38.8296 22.6697C39.2911 22.1771 39.372 21.8067 39.0684 21.5625C38.8944 21.4241 38.7284 21.3915 38.5625 21.4607C38.356 21.4078 38.1982 21.5787 38.0767 21.9695C37.8217 22.3481 37.5222 22.8243 37.1862 23.3861C36.7976 24.0333 36.3848 24.8393 35.9436 25.7999C35.5024 26.7606 35.0854 27.7131 34.6969 28.6574C34.5147 29.1011 34.3245 29.5041 34.1383 29.8664C34.1787 29.5204 34.2192 29.1663 34.2556 28.804C34.3326 28.0591 34.3933 27.3589 34.4337 26.7036C34.4985 26.3332 34.5714 25.9709 34.6523 25.6208C34.8142 24.8922 34.9438 24.3467 35.0369 23.9804C35.13 23.614 35.2069 23.3169 35.2676 23.0889C35.0612 22.4702 34.7373 22.4132 34.2921 22.9139C34.2395 23.1459 34.2111 23.4553 34.199 23.846C34.1909 24.2368 34.1666 24.8026 34.1261 25.5516C34.0856 26.2965 34.0168 27.074 33.9278 27.88C33.8347 28.69 33.7375 29.4105 33.6282 30.0414C33.5675 30.4078 33.5028 30.7294 33.434 31.0184C33.1061 31.4987 33.0494 31.8203 33.2558 31.9912C33.1628 32.1663 33.0737 32.3413 32.9806 32.5123C32.3087 33.7945 31.7056 34.9465 31.1753 35.96C30.645 36.9777 30.2281 37.7714 29.9164 38.3454C29.6048 38.9152 29.3659 39.4037 29.1919 39.7986C29.1919 40.3522 29.3457 40.401 29.6574 39.9492C29.7424 39.5421 29.9083 39.0414 30.1512 38.4471C30.3981 37.8528 30.7786 37.0469 31.2927 36.0211C31.8108 34.9953 32.4018 33.8433 33.0697 32.5611C33.1506 32.4064 33.2316 32.2477 33.3125 32.093C33.3854 32.1744 33.4987 32.2273 33.6606 32.2477C34.0452 32.2965 34.2678 31.9627 34.3285 31.2545C34.373 30.7375 34.4904 30.1554 34.6847 29.5082C34.8507 29.1948 35.0207 28.8813 35.1947 28.5638L35.2028 28.572ZM34.9357 28.747C35.2797 27.7863 35.6683 26.8298 36.1055 25.8732C36.5426 24.9166 36.9677 24.131 37.3805 23.5123C37.5424 23.2721 37.6962 23.0482 37.846 22.8528C37.672 23.3983 37.3927 24.0536 37 24.823C36.4576 25.8895 35.8221 27.1188 35.0895 28.5068C35.0247 28.629 34.96 28.7511 34.8952 28.8732C34.9114 28.8325 34.9235 28.7918 34.9357 28.747V28.747ZM34.0168 30.0781C33.9844 30.1351 33.9561 30.192 33.9237 30.245C33.9318 30.192 33.9359 30.1391 33.944 30.0862C34.029 29.4431 34.1261 28.7185 34.2354 27.9125V27.88C34.2152 28.1771 34.1909 28.4783 34.1585 28.7918C34.114 29.2314 34.0654 29.6588 34.0168 30.074" fill="white"/>
<path d="M47.933 29.4227C48.0059 29.1866 48.014 28.9627 47.9613 28.747C48.1111 28.4539 48.269 28.1486 48.439 27.8393C48.9045 27.0007 49.2526 26.3657 49.4792 25.9383C49.71 25.5109 50.0095 25.0794 50.3778 24.6439C50.6652 23.8583 50.5155 23.7687 49.9285 24.3671C49.6897 24.884 49.4469 25.3562 49.208 25.7836C48.9692 26.211 48.6414 26.8623 48.2325 27.7375C48.1071 28.0062 47.9856 28.2667 47.8682 28.5231C47.7347 28.2545 47.5161 28.1975 47.2206 28.3522C46.9211 28.5109 46.6215 28.7429 46.322 29.0523C46.0225 29.3616 45.7189 29.7036 45.4112 30.0781C45.1036 30.4526 44.8365 30.8026 44.6098 31.1323C44.3872 31.4621 44.2091 31.7551 44.0755 32.0116C43.9419 32.268 43.9945 32.5041 44.2253 32.7199C44.456 32.9356 44.7029 32.9478 44.966 32.7524C45.2291 32.5611 45.5043 32.3617 45.7958 32.1663C46.067 31.979 46.3139 31.8365 46.5284 31.7266C46.5001 31.804 46.4718 31.8813 46.4434 31.9546C46.3787 32.1337 46.3179 32.2925 46.2613 32.439C46.1965 32.5285 46.1317 32.614 46.071 32.6873C45.9091 32.8745 45.8646 33.0374 45.9375 33.1758C45.8565 33.3834 45.9536 33.4933 46.2248 33.5014C46.5284 33.5136 46.6984 33.3467 46.747 33.0089C46.7915 32.6669 46.8968 32.268 47.0587 31.8081C47.2206 31.3481 47.3825 30.9125 47.5404 30.5095C47.7023 30.1066 47.8318 29.7443 47.929 29.4308L47.933 29.4227ZM46.6661 31.3725C46.5163 31.4254 46.917 30.9044 46.7308 31.0713C46.5406 31.23 45.8605 31.5923 45.5529 31.7511C45.2493 31.9098 44.9781 32.0034 44.7353 32.036C44.6624 32.0441 44.6017 32.0604 44.5531 32.0767C44.5895 31.8813 44.6988 31.6249 44.881 31.3074C45.0712 30.9777 45.3222 30.6357 45.6379 30.2897C45.9496 29.9437 46.2734 29.6547 46.6053 29.4349C46.9373 29.2151 47.1801 29.0849 47.338 29.0523C47.4958 29.0157 47.5768 28.9912 47.5808 28.9709C47.5808 28.9546 47.5727 29.0482 47.5444 29.2436C47.4108 29.5489 47.2813 29.842 47.1639 30.1228C46.9737 30.5828 46.8037 30.998 46.658 31.3725H46.6661ZM47.253 30.4078C47.1315 30.7497 46.9818 31.0998 46.8077 31.4661C46.9413 31.0794 47.1073 30.652 47.2975 30.1839C47.3339 30.0944 47.3704 30.0048 47.4108 29.9152C47.3663 30.0699 47.3177 30.2327 47.257 30.4078" fill="white"/>
<path d="M50.7381 29.9682C50.4588 29.8583 50.1917 29.8461 49.9367 29.9397C49.8314 29.9763 49.7262 30.0089 49.6169 30.0415C49.7424 29.96 49.8516 29.8868 49.9367 29.8135C50.1026 29.6751 50.3212 29.5489 50.6005 29.4349C50.9567 28.9953 50.8514 28.8244 50.2888 28.9261C50.054 29.1052 49.8395 29.2518 49.6452 29.3576C49.4509 29.4634 49.2162 29.6344 48.9409 29.8664C48.6616 30.0984 48.4309 30.2694 48.2487 30.3752C48.2123 30.3956 48.184 30.42 48.1597 30.4485C48.1516 30.4485 48.1475 30.4526 48.1435 30.4566C47.8966 30.8718 47.9047 31.1934 48.0382 31.3237C48.2083 31.4865 48.4552 31.458 48.7871 31.2423C49.119 31.0265 49.5116 30.766 49.965 30.4566C49.9771 30.4485 49.9893 30.4404 50.0014 30.4322C50.0257 30.4241 50.05 30.4119 50.0783 30.4078C50.1148 30.3956 50.1471 30.3874 50.1755 30.3752V30.3834C50.1188 30.42 50.0662 30.4526 50.0136 30.4892C49.7181 30.7986 49.4064 31.1283 49.0664 31.4906C48.5523 32.036 48.2811 32.5082 47.9613 32.9478C47.7509 33.3345 47.5889 33.4689 47.759 33.3142C47.6537 33.42 47.5525 33.5218 47.4554 33.6195C47.1558 34.0387 47.2085 34.0876 47.6092 33.766C47.9209 33.42 48.2933 33.0333 48.7223 32.6059C49.1514 32.1826 49.5602 31.7959 49.9488 31.4458C50.3374 31.0957 50.641 30.7904 50.8474 30.5299C51.0579 30.2653 51.0215 30.0781 50.7462 29.9682H50.7381ZM48.0382 31.1324C48.0099 31.1486 48.0666 31.0591 48.1961 30.8678C48.2042 30.88 48.2123 30.8963 48.2204 30.9085C48.2447 30.9492 48.273 30.9817 48.2973 31.0102C48.1516 31.0713 48.0625 31.1079 48.0342 31.1283L48.0382 31.1324ZM49.6574 31.1934C49.3538 31.6086 48.9935 32.032 48.5766 32.4634C48.3378 32.7158 48.1111 32.9478 47.9006 33.1636C47.9249 33.1391 47.9492 33.1107 47.9775 33.0781C48.2771 32.6385 48.6899 32.15 49.204 31.6208C49.37 31.4499 49.54 31.287 49.7019 31.1324C49.6857 31.1527 49.6735 31.1731 49.6574 31.1934" fill="white"/>
<path d="M43.5128 27.0903C43.4562 27.1676 43.3914 27.2409 43.3226 27.306C43.2538 27.3712 43.1769 27.4607 43.0878 27.5788C43.0959 27.8718 43.2497 27.998 43.5533 27.9492C43.6586 27.8474 43.7355 27.7619 43.7962 27.6927C43.8529 27.6235 43.9176 27.5584 43.9905 27.4933C44.0229 27.1513 43.865 27.017 43.5128 27.0903" fill="white"/>
<path d="M43.2498 32.5326C43.4319 31.7796 43.6019 31.1405 43.7598 30.6154C43.9338 30.0374 44.0876 29.5652 44.2172 29.1988C44.1119 28.515 43.8812 28.3888 43.525 28.8121C43.521 28.7755 43.5129 28.7389 43.5048 28.7063C43.4683 28.5842 43.4522 28.5801 43.4522 28.6941C43.4238 28.9627 43.4036 28.9668 43.3833 28.7063C43.3833 28.5923 43.3671 28.5964 43.3226 28.7226C43.2821 28.8488 43.2619 29.0157 43.266 29.2314C43.266 29.4024 43.266 29.6425 43.266 29.956C43.2417 30.1228 43.2174 30.2979 43.185 30.4851C43.1 31.0224 42.9988 31.6737 42.8733 32.4309C42.8693 32.4309 42.8571 32.5326 42.8207 32.7321C42.679 33.5787 42.5535 34.3277 42.4483 34.979C42.4483 35.7199 42.5576 35.7361 42.7681 35.0279C42.849 34.3929 42.9826 33.6683 43.1688 32.8623C43.2052 32.6792 43.2295 32.5977 43.2457 32.5326" fill="white"/>
<path d="M45.3586 23.7606C45.3586 23.7606 45.3303 23.7728 45.3141 23.7769C45.2655 23.7931 45.221 23.8094 45.1684 23.8298C44.5612 24.3386 43.9662 24.7782 43.3874 25.1527C43.3793 25.1527 43.3712 25.1608 43.3671 25.1649C43.3186 25.1975 43.2659 25.23 43.2133 25.2667C42.9259 25.4539 42.5859 25.6859 42.1973 25.9627C42.1811 25.975 42.1609 25.9872 42.1447 25.9994C41.833 26.2192 41.4849 26.4675 41.1044 26.7402C41.0397 26.7891 40.9749 26.8338 40.9061 26.8827C40.8332 26.9356 40.7644 26.9845 40.6916 27.0374C40.477 27.1921 40.2706 27.3427 40.0682 27.4892C40.0682 27.4892 40.0682 27.4811 40.0682 27.477C40.3718 26.5855 40.8656 25.0143 41.2137 23.9478C41.2299 23.899 41.2461 23.8461 41.2623 23.7972C41.2785 23.7484 41.2947 23.7036 41.3068 23.6588C41.3271 23.5937 41.3473 23.5326 41.3675 23.4756C41.3918 23.3983 41.4161 23.3291 41.4404 23.264C41.4566 23.2151 41.4768 23.1622 41.493 23.1174C41.5335 22.9994 41.5659 22.9139 41.5902 22.865C41.6387 22.7551 41.6833 22.6452 41.7197 22.5435C41.8006 22.3033 41.8411 22.0876 41.8411 21.8963V21.8881C41.8411 21.8881 41.8411 21.8678 41.8411 21.8556C41.8411 21.8148 41.8411 21.7782 41.833 21.7375C41.829 21.6968 41.8209 21.6642 41.8168 21.6357C41.8047 21.5788 41.7966 21.534 41.7804 21.5096C41.7723 21.4973 41.7683 21.4892 41.7642 21.4851C41.7399 21.4688 41.7116 21.5258 41.6833 21.652C41.663 21.7009 41.6468 21.7416 41.6347 21.7823C41.6347 21.7904 41.6266 21.7986 41.6266 21.8067C41.5942 21.884 41.5659 21.941 41.5456 21.9858C41.5456 21.9858 41.5456 21.9899 41.5456 21.994C41.5335 22.0143 41.5254 22.0306 41.5133 22.0428C41.5011 22.0591 41.489 22.0631 41.4809 22.0631C41.4687 22.0631 41.4606 22.0387 41.4566 21.994C41.4566 21.9899 41.4566 21.9817 41.4566 21.9777C41.4566 21.9248 41.4566 21.8433 41.4687 21.7334C41.4728 21.6968 41.4768 21.6561 41.4849 21.6113C41.493 21.5788 41.4971 21.5543 41.5011 21.5299C41.5011 21.5055 41.5092 21.4851 41.5092 21.4729C41.5092 21.4566 41.5092 21.4444 41.5052 21.4363C41.5052 21.4281 41.4971 21.4241 41.489 21.4241C41.4606 21.4241 41.3999 21.477 41.3068 21.595C41.1247 21.8311 40.987 22.1853 40.894 22.6534C40.8859 22.69 40.8737 22.7429 40.8575 22.8162C40.8413 22.8813 40.8211 22.9587 40.8009 23.0523C40.7725 23.1703 40.7361 23.3087 40.6956 23.4594C40.6673 23.5652 40.6389 23.6751 40.6066 23.7931C40.5701 23.9397 40.5297 24.0903 40.4851 24.2531C40.4973 24.1921 40.5094 24.131 40.5216 24.0659C40.5418 23.9722 40.562 23.8827 40.5823 23.7931C40.6066 23.6832 40.6308 23.5733 40.6551 23.4634C40.6956 23.2843 40.7401 23.1052 40.7847 22.9302C40.8778 22.5598 40.9587 22.2789 41.0154 22.0876C41.0437 21.994 41.068 21.9085 41.0923 21.8393C41.1125 21.7701 41.1287 21.7131 41.1409 21.6724C41.1409 21.6642 41.1409 21.6561 41.149 21.648C41.149 21.648 41.149 21.6398 41.149 21.6357C41.149 21.6276 41.153 21.6195 41.1571 21.6113C41.149 21.6195 41.1409 21.6235 41.1328 21.6317C41.1247 21.6398 41.1125 21.652 41.1044 21.6561C41.0599 21.6805 41.0356 21.6561 41.0316 21.591C41.0316 21.5991 41.0235 21.6113 41.0194 21.6276C40.9992 21.6887 40.9749 21.7864 40.9466 21.9125C40.9385 21.9532 40.9263 22.0021 40.9142 22.0509C40.902 22.0998 40.8899 22.1568 40.8778 22.2178C40.8413 22.3725 40.7968 22.5638 40.7482 22.7918C40.7401 22.8325 40.732 22.8691 40.7199 22.9139C40.6349 23.2884 40.5539 23.671 40.477 24.0618C40.4204 24.3467 40.3718 24.6113 40.3273 24.8556C40.303 24.9532 40.2746 25.0469 40.2504 25.1446C40.2018 25.2952 40.1532 25.4539 40.1006 25.6167C40.0803 25.6819 40.0601 25.747 40.0358 25.8121C40.0156 25.8773 39.9953 25.9465 39.9711 26.0157C39.9387 26.1215 39.9022 26.2273 39.8658 26.3372C39.7363 26.7239 39.6027 27.1188 39.4651 27.5177C39.4368 27.5991 39.4084 27.6846 39.3801 27.766C39.3437 27.8718 39.3072 27.9777 39.2708 28.0835C39.0725 28.23 38.8782 28.3684 38.692 28.5068C38.5867 28.5842 38.4815 28.6615 38.3803 28.7348C38.2993 28.7918 38.2224 28.8488 38.1455 28.9058C38.1293 28.9139 38.1172 28.9261 38.105 28.9342C38.0808 28.9505 38.0565 28.9668 38.0362 28.9831C37.2672 29.5448 36.6397 30.0007 36.154 30.3589C36.0285 30.4485 35.9112 30.534 35.7978 30.6113C35.6845 30.6887 35.5792 30.7579 35.4821 30.8189C35.4335 30.8515 35.3849 30.88 35.3404 30.9044C35.2028 30.9858 35.0814 31.0509 34.9721 31.0957C34.794 31.1731 34.6968 31.3033 34.6887 31.4824C34.6847 31.5923 34.709 31.7185 34.7616 31.865C34.8142 32.0116 34.8871 32.1256 34.9721 32.2029C35.1137 32.3372 35.2999 32.382 35.5266 32.3332C35.5792 32.321 35.6319 32.3128 35.6885 32.3006C35.7735 32.2843 35.8707 32.2721 35.9719 32.2558C36.2026 32.2192 36.4697 32.1907 36.7693 32.1622C36.8583 32.1541 36.9474 32.1459 37.0445 32.1378C37.1174 32.1337 37.1902 32.1296 37.2672 32.1215C37.421 32.1134 37.5748 32.1052 37.7367 32.1011C37.7326 32.1134 37.7245 32.1256 37.7205 32.1418C37.6517 32.3087 37.5869 32.4716 37.5262 32.6222C37.5141 32.6547 37.4979 32.6914 37.4857 32.7239C37.4533 32.8013 37.421 32.8827 37.3886 32.96C37.3643 33.0129 37.34 33.0699 37.3117 33.131C37.2955 33.1636 37.2793 33.1961 37.2631 33.2368C37.2145 33.3427 37.1579 33.4566 37.0971 33.5747C37.0364 33.6927 36.9717 33.8148 36.9029 33.9451C36.8664 34.0102 36.834 34.0713 36.7976 34.1324C36.7571 34.2056 36.7126 34.2789 36.6681 34.3522H36.6721C36.6033 34.4702 36.5345 34.5883 36.4657 34.7022C36.3159 34.9465 36.1945 35.1337 36.1095 35.2558C36.0204 35.382 35.9597 35.4716 35.9233 35.5286C35.9233 35.5326 35.9152 35.5367 35.9152 35.5408C35.9112 35.5489 35.9031 35.557 35.899 35.5652C35.9881 35.5204 36.0245 35.5286 36.0083 35.5937C36.0123 35.5855 36.0204 35.5774 36.0245 35.5693C36.0326 35.557 36.0447 35.5408 36.0569 35.5204C36.0812 35.4838 36.1095 35.4349 36.1419 35.382C36.1581 35.3535 36.1783 35.325 36.1945 35.2884C36.2066 35.268 36.2188 35.2477 36.2309 35.2273C36.2835 35.1378 36.3443 35.0279 36.4212 34.8935C36.4536 34.8406 36.4859 34.7796 36.5224 34.7185C36.664 34.4702 36.8057 34.2138 36.9433 33.9532C36.9595 33.9207 36.9757 33.8881 36.9919 33.8596C36.9433 33.9614 36.8948 34.0672 36.8421 34.1731C36.8057 34.2463 36.7733 34.3155 36.7369 34.3888C36.579 34.7063 36.4212 35.0034 36.2916 35.2355C36.235 35.3372 36.1824 35.4227 36.1378 35.496C36.1216 35.5204 36.1095 35.5408 36.0973 35.557C36.0893 35.5815 36.0852 35.6059 36.0812 35.6262C36.0731 35.671 36.069 35.7036 36.065 35.7321C36.065 35.785 36.0731 35.8094 36.0973 35.8176C36.0973 35.8176 36.1095 35.8176 36.1176 35.8176C36.1054 35.8583 36.0933 35.9071 36.0812 35.956C36.1216 35.9885 36.1581 36.017 36.1945 36.0374C36.2633 36.0821 36.324 36.1025 36.3766 36.1025C36.4455 36.1025 36.5021 36.074 36.5547 36.017C36.5669 36.0048 36.579 35.9967 36.5871 35.9804C36.6276 35.9275 36.6681 35.8542 36.7086 35.7646C36.7409 35.6995 36.7733 35.6262 36.8017 35.557C36.8098 35.5408 36.8178 35.5245 36.8219 35.5082C36.8583 35.4268 36.8948 35.3454 36.9352 35.2599C36.9352 35.2518 36.9433 35.2436 36.9474 35.2355C36.9474 35.2355 36.9636 35.2029 36.9717 35.1866C36.9919 35.1378 37.0162 35.0889 37.0405 35.036V35.0279C37.1214 34.861 37.1983 34.6859 37.2833 34.4987C37.4493 34.1283 37.6355 33.7049 37.8379 33.2246C37.85 33.2002 37.8622 33.1717 37.8703 33.1432C37.9269 33.0048 37.9836 32.8705 38.0443 32.7239C38.0888 32.6222 38.1293 32.5163 38.1739 32.4105C38.2184 32.3047 38.2589 32.1988 38.3034 32.0889C38.3803 32.0889 38.4572 32.093 38.5341 32.0971C38.6879 32.1011 38.8458 32.1093 39.0077 32.1174C39.0886 32.1174 39.1696 32.1256 39.2506 32.1296C39.3963 32.1378 39.5339 32.15 39.6796 32.1622C40.3516 32.2192 41.0032 32.3087 41.6266 32.4309C41.8695 32.4756 42.0921 32.5286 42.3026 32.5855C42.3714 32.6018 42.4402 32.6222 42.505 32.6385C42.5738 32.6588 42.6426 32.6792 42.7114 32.6995C42.7316 32.7077 42.7762 32.7239 42.8247 32.7402C42.845 32.7484 42.8652 32.7565 42.8895 32.7646C42.9138 32.7728 42.9421 32.7809 42.9664 32.7931C43.0028 32.8053 43.0393 32.8176 43.0636 32.8298C43.0919 32.8379 43.1243 32.8501 43.1607 32.8664C43.185 32.8745 43.2133 32.8868 43.2376 32.8949C43.2457 32.899 43.2578 32.903 43.27 32.9071C43.2781 32.9112 43.2862 32.9153 43.2983 32.9193C43.3509 32.9397 43.4076 32.9641 43.4562 32.9885C43.5129 33.017 43.5695 33.0455 43.6221 33.0699C43.7274 33.1269 43.8205 33.1798 43.9014 33.2368C44.0269 33.3182 44.1281 33.3996 44.205 33.477C44.2576 33.5299 44.2981 33.5828 44.3265 33.6317C44.3872 33.7334 44.4276 33.823 44.4519 33.9003C44.4641 33.937 44.4681 33.9736 44.4722 34.0062C44.4722 34.0387 44.4722 34.0672 44.4641 34.0916C44.4357 34.1893 44.4236 34.287 44.4317 34.3847C44.6948 34.5272 44.9458 34.5679 45.1846 34.5109H45.2008C45.221 34.5028 45.2453 34.4987 45.2655 34.4906C45.2817 34.4865 45.2939 34.4783 45.3101 34.4702C45.3991 34.4336 45.4841 34.3888 45.5691 34.3237C45.6177 34.287 45.6663 34.2423 45.7148 34.1934C45.7027 34.1405 45.6784 34.0713 45.6379 33.998C45.6015 33.9207 45.5489 33.8352 45.4801 33.7416C45.4315 33.6683 45.3667 33.5991 45.2939 33.5299C45.2574 33.4973 45.2251 33.4648 45.1846 33.4322C45.1441 33.3956 45.0955 33.363 45.047 33.3264C44.9822 33.2816 44.9134 33.2368 44.8365 33.1921C44.5369 33.017 44.1322 32.842 43.614 32.6588C43.5695 32.6425 43.5209 32.6303 43.4764 32.614C43.4279 32.5977 43.3793 32.5855 43.3307 32.5693C43.3307 32.5693 43.2619 32.5448 43.0919 32.496C43.0271 32.4756 42.9745 32.4634 42.934 32.4512C42.9057 32.4431 42.8814 32.439 42.8652 32.4349C42.8409 32.4268 42.8247 32.4268 42.8247 32.4268C42.4807 32.3413 42.1042 32.2599 41.6873 32.1826C40.9182 32.0442 40.1208 31.9302 39.291 31.8366H39.2829C39.2829 31.8366 39.2587 31.8366 39.2465 31.8325C39.1129 31.8162 38.9875 31.804 38.8579 31.7877C38.7203 31.7714 38.5827 31.7551 38.4491 31.7389C38.5382 31.5191 38.6232 31.2952 38.7122 31.0672C38.781 30.8881 38.8498 30.7049 38.9227 30.5177C38.9794 30.363 39.0441 30.2043 39.1048 30.0455C39.1291 29.9763 39.1575 29.9112 39.1817 29.842C39.2465 29.6751 39.3113 29.5041 39.3801 29.3332C39.4003 29.2843 39.4165 29.2314 39.4368 29.1826C39.5056 29.0034 39.5744 28.8243 39.6472 28.6412C39.7322 28.4214 39.8213 28.1975 39.9103 27.9695C39.9225 27.937 39.9346 27.9044 39.9468 27.8678C40.303 27.6276 40.6754 27.3834 41.0721 27.131C41.1854 27.0618 41.2906 26.9926 41.3959 26.9234C41.404 26.9234 41.408 26.9153 41.4121 26.9112C41.6995 26.728 41.9666 26.557 42.2135 26.3983C42.4402 26.2518 42.6547 26.1134 42.845 25.9872C43.1364 25.7958 43.3874 25.633 43.606 25.4865C43.6424 25.4621 43.6869 25.4376 43.7233 25.4091C43.8043 25.3562 43.8852 25.3074 43.9662 25.2545C44.1888 25.1201 44.4196 24.9858 44.6584 24.8596C44.8203 24.7741 44.9903 24.6887 45.1603 24.6032C45.2858 24.5421 45.4113 24.4811 45.5448 24.42C45.561 24.4037 45.5732 24.3915 45.5894 24.3793C45.6136 24.3549 45.6379 24.3304 45.6622 24.306L45.6906 24.2775C45.6906 24.2775 45.7189 24.249 45.731 24.2368C45.7391 24.2287 45.7513 24.2165 45.7594 24.2083C45.9779 23.9804 46.0872 23.8176 46.0872 23.7239C46.0872 23.5896 45.8484 23.6018 45.3708 23.7687L45.3586 23.7606ZM38.5705 30.7782C38.4572 31.0631 38.3439 31.344 38.2305 31.6167C38.2184 31.6452 38.2062 31.6778 38.1941 31.7063C38.1779 31.7063 38.1658 31.7063 38.1496 31.7022C38.2386 31.4621 38.3277 31.2138 38.4248 30.9532C38.522 30.6927 38.6191 30.42 38.7243 30.1351C38.7689 30.017 38.8094 29.899 38.8539 29.7809C38.8741 29.7239 38.8944 29.671 38.9146 29.614C38.9834 29.4227 39.0522 29.2314 39.121 29.0442C39.1575 28.9342 39.1979 28.8284 39.2344 28.7226C39.2708 28.6167 39.3072 28.5109 39.3437 28.4091C39.3639 28.3522 39.3841 28.2992 39.4003 28.2423C39.4003 28.2423 39.4044 28.2423 39.4084 28.2382C39.4206 28.23 39.4327 28.2219 39.4449 28.2138C39.376 28.458 39.3072 28.6941 39.2344 28.9302C39.2141 28.9912 39.1979 29.0523 39.1777 29.1134C39.1575 29.1826 39.1332 29.2518 39.1129 29.321C39.0927 29.3779 39.0765 29.4349 39.0563 29.4919C39.032 29.5611 39.0077 29.6303 38.9834 29.6995C38.9632 29.7565 38.947 29.8094 38.9267 29.8664C38.8579 30.0618 38.7851 30.2531 38.7122 30.4404C38.6636 30.5584 38.6191 30.6724 38.5746 30.7864L38.5705 30.7782ZM39.542 27.8515C39.542 27.8515 39.5299 27.8922 39.5258 27.9125L39.5137 27.9207C39.5299 27.8678 39.5501 27.8189 39.5663 27.7701C39.5622 27.7904 39.5582 27.8067 39.5541 27.823C39.5541 27.8311 39.5501 27.8433 39.546 27.8515H39.542ZM37.0769 31.5557C37.0283 31.5475 36.9879 31.5394 36.9433 31.5313C36.8462 31.515 36.7531 31.4987 36.664 31.4824C36.3847 31.4295 36.154 31.3725 35.9638 31.3115C35.8707 31.283 35.7938 31.2545 35.725 31.2219C35.8019 31.1323 35.8909 31.0347 36.0043 30.9248C36.0528 30.8759 36.1054 30.8271 36.1621 30.7741C36.2228 30.7212 36.2835 30.6642 36.3524 30.6032C36.405 30.5584 36.4616 30.5096 36.5143 30.4607C36.5386 30.4404 36.5628 30.42 36.5871 30.3996C36.6195 30.3712 36.6519 30.3467 36.6843 30.3182C36.7207 30.2897 36.7531 30.2613 36.7855 30.2328C36.8098 30.2124 36.834 30.1961 36.8583 30.1758C36.8988 30.1432 36.9393 30.1106 36.9838 30.074C37.2631 29.8461 37.5748 29.5977 37.9269 29.3332C38.0241 29.2599 38.1212 29.1826 38.2265 29.1052L38.2386 29.0971C38.3196 29.036 38.4046 28.975 38.4855 28.9139C38.5786 28.8447 38.6717 28.7755 38.7689 28.7063C38.862 28.6412 38.9591 28.572 39.0563 28.5028C39.0967 28.4743 39.1372 28.4458 39.1777 28.4173C39.0886 28.6656 38.9955 28.9139 38.9065 29.1622C38.8539 29.3087 38.7972 29.4512 38.7405 29.5977C38.6798 29.7565 38.6191 29.9112 38.5584 30.074C38.526 30.1595 38.4936 30.2409 38.4612 30.3264C38.3115 30.709 38.1739 31.0672 38.0403 31.4051C38.0038 31.4987 37.9674 31.5923 37.931 31.6819C37.7853 31.6615 37.6395 31.6412 37.5019 31.6208C37.3603 31.6005 37.2267 31.5801 37.0931 31.5598L37.0769 31.5557ZM37.935 32.382C37.9188 32.4227 37.8986 32.4634 37.8824 32.5001C37.9269 32.3739 37.9755 32.2436 38.0241 32.1134H38.0484C38.0079 32.207 37.9715 32.2925 37.931 32.382" fill="white"/>
</g>
<defs>
<linearGradient id="paint0_linear_675_231" x1="5.47656" y1="4.96577" x2="54.7766" y2="67.8658" gradientUnits="userSpaceOnUse">
<stop stop-color="#D34648"/>
<stop offset="1" stop-color="#BE3839"/>
</linearGradient>
<clipPath id="clip0_675_231">
<rect width="40" height="20.597" fill="white" transform="translate(10.9769 19.6656)"/>
</clipPath>
</defs>
</svg>
