<svg width="280" height="96" viewBox="0 0 280 96" fill="none" xmlns="http://www.w3.org/2000/svg">
<g clip-path="url(#clip0_4_2)">
<path d="M64.9277 0L44.3347 95.5641L44.9624 95.5539L65.5858 0H64.9277Z" fill="url(#paint0_linear_4_2)"/>
<path d="M126.818 43.1906H68.7648L66.7197 52.6569H124.783L126.818 43.1906Z" fill="url(#paint1_linear_4_2)"/>
<path d="M225.258 42.654L219.527 52.1203H277.965L280 42.654H225.258Z" fill="url(#paint2_linear_4_2)"/>
<path d="M58.7417 28.652H93.5898L91.5143 38.3107H69.8178L63.7735 66.3856H50.6118L58.7417 28.652Z" fill="white"/>
<path d="M96.9208 28.652H131.435L129.41 38.3107H94.8352L96.9208 28.652ZM90.8765 56.6966H125.401L123.315 66.3957H88.7909L90.8765 56.6966Z" fill="white"/>
<path d="M146.804 58.7214C148.828 58.7214 151.967 58.3063 152.554 55.5525C153 53.4568 151.542 53.1226 146.267 51.7255C145.761 51.5837 145.255 51.4015 144.586 51.2598C138.117 49.5386 130.341 47.7162 131.83 40.4368C133.774 31.0616 142.734 28.085 151.552 28.085C160.785 28.085 168.652 31.254 166.739 40.538H154.043C154.944 37.5007 152.18 36.4883 149.74 36.4883C148.069 36.4883 145.214 36.8629 144.809 38.9586C144.404 40.8721 147.927 41.6213 151.825 42.5528L155.875 43.5652C161.484 44.9624 167.548 47.6656 166.192 54.3376C164.167 64.0874 153.395 67.2057 143.847 67.2057C139.099 67.2057 125.522 65.6668 127.922 53.7301H141.316C140.466 57.709 143.088 58.7214 146.804 58.7214Z" fill="white"/>
<path d="M179.273 52.4139H168.095L170.181 42.6844H216.794L214.829 52.4139H191.938L185.853 80.661H173.188L179.273 52.4139Z" fill="white"/>
<path d="M229.915 35.1012L216.156 57.8507H203.014L226.128 19.8033H239.897L247.47 57.8507H234.329L229.915 35.1012Z" fill="white"/>
<path d="M28.2268 28.652H8.09951L0 66.3856H17.9607C32.3474 66.3856 40.5785 59.0657 42.978 47.453C44.9624 37.9361 41.9757 28.652 28.2268 28.652ZM19.3274 40.2444L30.1302 46.9468L15.956 55.8664L19.3274 40.2444Z" fill="white"/>
<path d="M196.322 70.0709C196.734 70.0073 197.151 69.9802 197.567 69.9899C197.879 69.9709 198.192 70.014 198.488 70.1165C198.783 70.219 199.055 70.379 199.288 70.5872C199.469 70.7675 199.609 70.9848 199.698 71.2242C199.787 71.4636 199.824 71.7195 199.805 71.9743C199.805 72.3876 199.715 72.796 199.54 73.1704C199.365 73.5449 199.11 73.8762 198.792 74.1409C198.155 74.6051 197.369 74.8178 196.585 74.7382C196.175 74.7372 195.766 74.7068 195.36 74.6471L196.322 70.0709ZM196.322 74.0498C196.494 74.0604 196.666 74.0604 196.838 74.0498C197.112 74.0685 197.387 74.0295 197.645 73.9353C197.904 73.8412 198.139 73.6939 198.337 73.503C198.724 73.0772 198.934 72.5195 198.924 71.9439C198.942 71.7603 198.919 71.575 198.855 71.4017C198.792 71.2284 198.69 71.0717 198.558 70.9432C198.426 70.8147 198.266 70.7178 198.091 70.6597C197.916 70.6015 197.73 70.5837 197.547 70.6075C197.372 70.59 197.196 70.59 197.021 70.6075L196.322 74.0498Z" fill="white"/>
<path d="M200.109 74.718L200.807 71.3263H201.627L200.918 74.718H200.109ZM200.959 70.405C200.959 70.3403 200.972 70.2763 200.997 70.2166C201.022 70.157 201.059 70.103 201.105 70.0577C201.151 70.0124 201.206 69.9769 201.266 69.953C201.326 69.9292 201.39 69.9176 201.455 69.919C201.513 69.9189 201.57 69.9306 201.623 69.9532C201.676 69.9758 201.723 70.009 201.763 70.0506C201.803 70.0923 201.834 70.1416 201.854 70.1955C201.874 70.2495 201.883 70.307 201.88 70.3645C201.879 70.4305 201.865 70.4956 201.838 70.556C201.811 70.6163 201.772 70.6708 201.724 70.716C201.676 70.7613 201.62 70.7965 201.558 70.8196C201.496 70.8427 201.43 70.8532 201.364 70.8504C201.307 70.8507 201.251 70.8391 201.199 70.8162C201.147 70.7934 201.1 70.7599 201.062 70.7179C201.024 70.6759 200.995 70.6263 200.977 70.5724C200.96 70.5185 200.953 70.4615 200.959 70.405Z" fill="white"/>
<path d="M202.062 73.908C202.309 74.0528 202.587 74.1362 202.872 74.151C203.207 74.151 203.399 73.9688 203.409 73.746C203.419 73.5233 203.298 73.3917 202.974 73.2094C202.788 73.1402 202.626 73.0179 202.509 72.8577C202.392 72.6975 202.325 72.5065 202.316 72.3084C202.316 71.6604 202.903 71.2048 203.713 71.2149C203.991 71.215 204.265 71.2809 204.513 71.4073L204.29 71.9945C204.099 71.8847 203.883 71.8254 203.662 71.8224C203.348 71.8224 203.136 71.9844 203.136 72.2172C203.136 72.4501 203.277 72.5412 203.561 72.6931C203.75 72.768 203.916 72.8935 204.039 73.056C204.162 73.2184 204.239 73.4116 204.259 73.6144C204.259 74.3636 203.601 74.7686 202.791 74.7483C202.457 74.7567 202.126 74.6689 201.84 74.4952L202.062 73.908Z" fill="white"/>
<path d="M204.513 76.0746L205.231 72.5716C205.323 72.1666 205.404 71.6604 205.454 71.306H206.183L206.102 71.8629C206.235 71.677 206.409 71.5251 206.611 71.4196C206.814 71.314 207.038 71.2577 207.266 71.2554C208.005 71.2554 208.279 71.873 208.279 72.5311C208.307 73.0982 208.109 73.6534 207.73 74.076C207.351 74.4987 206.821 74.7549 206.254 74.7888C206.022 74.7953 205.792 74.7431 205.586 74.637L205.292 76.0848L204.513 76.0746ZM205.758 74.0498C205.915 74.1679 206.108 74.2287 206.305 74.2219C206.932 74.2219 207.469 73.4018 207.479 72.6425C207.479 72.3286 207.347 71.9743 206.953 71.9743C206.558 71.9743 206.082 72.4197 205.94 73.2196L205.758 74.0498Z" fill="white"/>
<path d="M211.023 74.7382C211.023 74.5357 211.023 74.2624 211.104 73.9688C210.999 74.2109 210.827 74.4179 210.608 74.5651C210.389 74.7123 210.132 74.7935 209.868 74.799C209.72 74.8011 209.572 74.7705 209.437 74.7092C209.301 74.6479 209.181 74.5575 209.084 74.4444C208.987 74.3313 208.917 74.1983 208.877 74.0549C208.838 73.9114 208.831 73.761 208.856 73.6144C208.853 73.2973 208.915 72.9829 209.037 72.6905C209.16 72.3981 209.341 72.1338 209.569 71.9139C209.798 71.694 210.069 71.523 210.366 71.4115C210.663 71.3 210.979 71.2504 211.296 71.2655C211.64 71.2709 211.982 71.3289 212.308 71.4377L211.924 73.1993C211.82 73.7093 211.766 74.228 211.762 74.7484L211.023 74.7382ZM211.407 71.9338C211.297 71.9153 211.184 71.9153 211.073 71.9338C210.324 71.9338 209.727 72.7538 209.717 73.5233C209.717 73.8878 209.838 74.1814 210.192 74.1814C210.547 74.1814 211.033 73.7258 211.205 72.8652L211.407 71.9338Z" fill="white"/>
<path d="M214.495 70.405L214.303 71.3364H215.072L214.941 71.9641H214.181L213.878 73.3309C213.844 73.4909 213.823 73.6535 213.817 73.8169C213.81 73.8574 213.813 73.8989 213.825 73.9381C213.838 73.9773 213.859 74.013 213.887 74.0425C213.916 74.072 213.951 74.0945 213.99 74.108C214.028 74.1216 214.07 74.1259 214.11 74.1206C214.205 74.1309 214.3 74.1309 214.394 74.1206L214.303 74.7585C214.131 74.8029 213.954 74.8234 213.776 74.8192C213.209 74.8192 212.966 74.4952 212.977 74.1105C212.977 73.8953 213.004 73.681 213.058 73.4727L213.381 71.9641H212.916L213.047 71.3364H213.513L213.665 70.6075L214.495 70.405Z" fill="white"/>
<path d="M217.563 74.6269C217.244 74.7649 216.897 74.824 216.55 74.799C216.368 74.8114 216.185 74.7841 216.013 74.7189C215.842 74.6537 215.688 74.5521 215.559 74.4212C215.431 74.2903 215.333 74.1332 215.272 73.9607C215.211 73.7882 215.187 73.6044 215.204 73.422C215.202 73.135 215.259 72.8506 215.369 72.5857C215.479 72.3207 215.642 72.0806 215.847 71.8796C216.052 71.6785 216.295 71.5206 216.562 71.4151C216.829 71.3096 217.114 71.2588 217.401 71.2656C217.637 71.2737 217.869 71.3216 218.089 71.4073L217.877 72.0451C217.715 71.9696 217.539 71.9316 217.36 71.9338C217.182 71.939 217.006 71.9797 216.843 72.0535C216.68 72.1273 216.534 72.2328 216.413 72.3638C216.291 72.4947 216.197 72.6486 216.135 72.8164C216.074 72.9842 216.046 73.1625 216.054 73.3411C216.041 73.4437 216.05 73.5479 216.081 73.6467C216.112 73.7454 216.164 73.8363 216.233 73.9132C216.302 73.9901 216.387 74.0512 216.482 74.0922C216.577 74.1332 216.68 74.1533 216.783 74.151C217.034 74.1508 217.282 74.0991 217.512 73.9991L217.563 74.6269Z" fill="white"/>
<path d="M218.261 74.6977L219.274 69.757H220.084L219.699 71.8831C219.832 71.7051 220.004 71.561 220.203 71.4624C220.402 71.3639 220.621 71.3138 220.843 71.3162C220.963 71.3121 221.081 71.3342 221.191 71.3809C221.301 71.4276 221.4 71.4977 221.48 71.5864C221.56 71.6752 221.62 71.7803 221.655 71.8945C221.69 72.0087 221.7 72.1292 221.684 72.2476C221.679 72.4485 221.655 72.6485 221.613 72.845L221.208 74.799H220.398L220.793 72.8956C220.793 72.764 220.793 72.6222 220.843 72.4501C220.894 72.278 220.712 71.8831 220.398 71.8831C220.084 71.8831 219.547 72.3387 219.385 73.0576L219.051 74.6775L218.261 74.6977Z" fill="white"/>
<path d="M225.531 70.9719L224.68 71.3465V70.7188L225.855 70.1924H226.533L225.592 74.718H224.802L225.531 70.9719Z" fill="white"/>
<path d="M230.35 71.6402C230.35 73.0879 229.591 74.8293 228.244 74.799C227.343 74.799 227.019 74.07 227.029 73.1791C227.029 71.711 227.839 70.1417 229.155 70.1417C230.077 70.1417 230.36 70.8707 230.35 71.6402ZM227.799 73.2196C227.799 73.6245 227.859 74.151 228.315 74.151C229.074 74.151 229.49 72.3894 229.5 71.6503C229.5 71.3162 229.5 70.7796 229.004 70.7695C228.325 70.7593 227.849 72.359 227.799 73.2196Z" fill="white"/>
<path d="M232.932 70.405L232.739 71.3364H233.509L233.367 71.9641H232.608L232.314 73.3309C232.28 73.4909 232.26 73.6535 232.253 73.8169C232.244 73.8578 232.245 73.9002 232.257 73.9405C232.268 73.9808 232.289 74.0177 232.318 74.0477C232.348 74.0778 232.384 74.1003 232.424 74.113C232.463 74.1257 232.506 74.1283 232.547 74.1206C232.638 74.1309 232.729 74.1309 232.82 74.1206L232.739 74.7585C232.564 74.8026 232.384 74.823 232.203 74.8192C231.646 74.8192 231.403 74.4952 231.403 74.1105C231.412 73.8954 231.442 73.6817 231.494 73.4727L231.818 71.9641H231.352L231.484 71.3364H231.94L232.091 70.6075L232.932 70.405Z" fill="white"/>
<path d="M233.559 74.6977L234.572 69.757H235.392L234.957 71.7819C235.089 71.6039 235.262 71.4597 235.461 71.3612C235.659 71.2627 235.879 71.2125 236.101 71.2149C236.22 71.2109 236.339 71.2329 236.449 71.2796C236.559 71.3263 236.657 71.3965 236.737 71.4852C236.817 71.5739 236.877 71.6791 236.912 71.7933C236.947 71.9075 236.957 72.028 236.941 72.1464C236.931 72.3469 236.908 72.5465 236.87 72.7437L236.465 74.6977H235.645L236.05 72.7943C236.05 72.6627 236.05 72.521 236.05 72.3489C236.05 72.1767 235.939 71.8831 235.625 71.8831C235.311 71.8831 234.774 72.3387 234.612 73.0576L234.268 74.6775L233.559 74.6977Z" fill="white"/>
<path d="M240.12 73.3714L239.462 74.7078H238.591L241.031 70.0405H242.044L242.56 74.7585H241.71L241.598 73.4119L240.12 73.3714ZM241.568 72.7741L241.457 71.5997C241.457 71.3465 241.457 70.9821 241.406 70.6986C241.274 70.9821 241.143 71.306 241.011 71.5895L240.414 72.7538L241.568 72.7741Z" fill="white"/>
<path d="M243.208 74.6977L243.694 72.359C243.785 71.954 243.836 71.5997 243.886 71.3466H244.605L244.524 71.9641C244.655 71.7579 244.836 71.5883 245.05 71.4714C245.265 71.3545 245.505 71.2941 245.749 71.2959C245.871 71.2898 245.994 71.3111 246.106 71.3582C246.219 71.4054 246.32 71.4773 246.402 71.5685C246.483 71.6598 246.544 71.7681 246.578 71.8857C246.612 72.0032 246.62 72.1268 246.6 72.2476C246.594 72.4384 246.57 72.6282 246.529 72.8146L246.124 74.7787H245.314L245.709 72.8652C245.709 72.7336 245.709 72.5918 245.709 72.4602C245.709 72.1767 245.608 71.9641 245.284 71.9641C244.96 71.9641 244.433 72.3894 244.271 73.1892L243.998 74.718L243.208 74.6977Z" fill="white"/>
<path d="M247.177 74.6977L247.653 72.359C247.744 71.954 247.804 71.5997 247.855 71.3465H248.574L248.493 71.9641C248.625 71.7571 248.808 71.5871 249.024 71.4702C249.24 71.3533 249.482 71.2933 249.728 71.2959C249.85 71.2916 249.971 71.3142 250.083 71.362C250.195 71.4097 250.295 71.4816 250.376 71.5724C250.458 71.6632 250.518 71.7708 250.553 71.8875C250.588 72.0042 250.596 72.1271 250.579 72.2476C250.573 72.4384 250.549 72.6282 250.508 72.8146L250.072 74.7483H249.262L249.657 72.8348C249.672 72.7002 249.672 72.5644 249.657 72.4298C249.657 72.1464 249.566 71.9338 249.242 71.9338C248.918 71.9338 248.392 72.359 248.23 73.1588L247.906 74.7281L247.177 74.6977Z" fill="white"/>
<path d="M251.135 74.718L251.844 71.3263H252.664L251.945 74.718H251.135ZM251.986 70.405C251.986 70.3394 251.999 70.2745 252.025 70.2142C252.05 70.1539 252.088 70.0994 252.135 70.054C252.183 70.0086 252.239 69.9732 252.3 69.95C252.361 69.9268 252.427 69.9163 252.492 69.919C252.55 69.9189 252.607 69.9306 252.66 69.9532C252.713 69.9758 252.76 70.009 252.8 70.0506C252.84 70.0923 252.871 70.1416 252.891 70.1955C252.911 70.2495 252.92 70.307 252.917 70.3645C252.916 70.4305 252.901 70.4956 252.875 70.556C252.848 70.6164 252.809 70.6708 252.761 70.716C252.713 70.7613 252.657 70.7965 252.595 70.8196C252.533 70.8427 252.467 70.8532 252.401 70.8504C252.344 70.8506 252.287 70.8389 252.235 70.8162C252.182 70.7935 252.135 70.7602 252.096 70.7183C252.057 70.6765 252.027 70.6271 252.008 70.5732C251.989 70.5192 251.982 70.462 251.986 70.405Z" fill="white"/>
<path d="M254.122 71.3162L254.314 73.0171C254.314 73.422 254.385 73.6751 254.395 73.8979C254.487 73.6853 254.588 73.4423 254.78 73.0474L255.651 71.3465H256.562L254.608 74.7078H253.788L253.261 71.2959L254.122 71.3162Z" fill="white"/>
<path d="M259.184 74.556C258.804 74.7303 258.388 74.8135 257.969 74.799C257.781 74.8139 257.591 74.7867 257.414 74.7193C257.238 74.652 257.078 74.5461 256.947 74.4095C256.816 74.2728 256.718 74.1088 256.658 73.9293C256.598 73.7497 256.579 73.5592 256.603 73.3714C256.59 73.103 256.632 72.8348 256.724 72.5825C256.817 72.3302 256.958 72.0988 257.141 71.9019C257.324 71.705 257.544 71.5464 257.789 71.4354C258.034 71.3244 258.298 71.2632 258.567 71.2554C258.705 71.2457 258.845 71.2647 258.976 71.3112C259.107 71.3577 259.227 71.4307 259.329 71.5257C259.431 71.6207 259.512 71.7356 259.567 71.8633C259.622 71.991 259.65 72.1287 259.65 72.2679C259.65 73.1386 258.708 73.4018 257.402 73.3512C257.38 73.5176 257.408 73.6869 257.483 73.8371C257.554 73.9552 257.655 74.0516 257.777 74.1159C257.898 74.1802 258.035 74.2098 258.172 74.2016C258.498 74.2054 258.82 74.1325 259.113 73.989L259.184 74.556ZM258.465 71.8831C258.232 71.8919 258.008 71.9814 257.833 72.1364C257.657 72.2915 257.541 72.5025 257.504 72.7336C258.344 72.7336 258.881 72.6526 258.891 72.2476C258.891 72.0046 258.719 71.8831 258.465 71.8831Z" fill="white"/>
<path d="M259.984 74.7078L260.419 72.6222C260.521 72.1464 260.571 71.6098 260.622 71.3162H261.321C261.321 71.5389 261.27 71.7819 261.229 72.0249C261.313 71.8049 261.46 71.6141 261.65 71.4757C261.841 71.3373 262.067 71.2573 262.303 71.2453H262.485L262.303 72.0451H262.151C261.574 72.0451 261.189 72.6121 261.047 73.3411L260.764 74.7078H259.984Z" fill="white"/>
<path d="M262.627 73.908C262.876 74.0544 263.158 74.1378 263.447 74.151C263.771 74.151 263.973 73.9688 263.973 73.746C263.973 73.5233 263.872 73.3917 263.538 73.2094C263.352 73.1402 263.19 73.0179 263.073 72.8577C262.956 72.6975 262.889 72.5065 262.88 72.3084C262.88 71.6604 263.477 71.2048 264.277 71.2149C264.555 71.215 264.829 71.2809 265.077 71.4073L264.854 71.9945C264.663 71.909 264.455 71.8708 264.246 71.8831C263.933 71.8831 263.72 72.0451 263.72 72.278C263.72 72.5109 263.872 72.602 264.155 72.7538C264.343 72.8302 264.506 72.9564 264.628 73.1187C264.749 73.2811 264.824 73.4735 264.844 73.6752C264.844 74.4244 264.196 74.8293 263.376 74.8091C263.041 74.8158 262.711 74.7281 262.424 74.556L262.627 73.908Z" fill="white"/>
<path d="M267.658 74.7382C267.658 74.5357 267.709 74.2624 267.739 73.9688C267.635 74.2109 267.463 74.4179 267.244 74.5651C267.025 74.7123 266.768 74.7935 266.504 74.799C266.355 74.8011 266.208 74.7705 266.072 74.7092C265.937 74.6479 265.817 74.5575 265.72 74.4444C265.623 74.3313 265.553 74.1983 265.513 74.0549C265.474 73.9114 265.467 73.761 265.492 73.6144C265.489 73.2973 265.55 72.9829 265.673 72.6905C265.796 72.3981 265.977 72.1338 266.205 71.9139C266.434 71.694 266.705 71.523 267.002 71.4115C267.299 71.3 267.615 71.2504 267.932 71.2655C268.276 71.2699 268.618 71.328 268.944 71.4377L268.56 73.1993C268.456 73.7093 268.402 74.228 268.398 74.7484L267.658 74.7382ZM268.043 71.9338C267.933 71.9153 267.82 71.9153 267.709 71.9338C266.96 71.9338 266.362 72.7538 266.352 73.5233C266.352 73.8878 266.474 74.1814 266.828 74.1814C267.183 74.1814 267.669 73.7258 267.841 72.8652L268.043 71.9338Z" fill="white"/>
<path d="M269.309 74.7078L269.744 72.6222C269.845 72.1464 269.896 71.6098 269.946 71.3162H270.645C270.645 71.5389 270.594 71.7819 270.564 72.0249C270.65 71.8041 270.798 71.613 270.99 71.4746C271.182 71.3363 271.411 71.2566 271.647 71.2453H271.819L271.647 72.0451H271.485C270.908 72.0451 270.524 72.6121 270.382 73.3411L270.098 74.7078H269.309Z" fill="white"/>
<path d="M272.953 71.3162L273.186 72.9664C273.247 73.3309 273.288 73.584 273.308 73.8169L273.652 73.0069L274.421 71.3465H275.272L273.986 73.8371C273.668 74.5223 273.237 75.1487 272.71 75.6899C272.427 75.9628 272.079 76.158 271.698 76.2569L271.516 75.5583C271.73 75.4903 271.934 75.395 272.123 75.2748C272.369 75.0928 272.579 74.8661 272.741 74.6066C272.761 74.5545 272.761 74.4967 272.741 74.4446L272.123 71.2959L272.953 71.3162Z" fill="white"/>
</g>
<defs>
<linearGradient id="paint0_linear_4_2" x1="44.3347" y1="47.777" x2="65.5858" y2="47.777" gradientUnits="userSpaceOnUse">
<stop stop-color="white" stop-opacity="0"/>
<stop offset="0.4" stop-color="white"/>
<stop offset="0.6" stop-color="white"/>
<stop offset="1" stop-color="white" stop-opacity="0"/>
</linearGradient>
<linearGradient id="paint1_linear_4_2" x1="126.818" y1="47.9288" x2="66.7197" y2="47.9288" gradientUnits="userSpaceOnUse">
<stop offset="0.45" stop-color="white"/>
<stop offset="1" stop-color="white" stop-opacity="0"/>
</linearGradient>
<linearGradient id="paint2_linear_4_2" x1="280" y1="47.3821" x2="219.527" y2="47.3821" gradientUnits="userSpaceOnUse">
<stop offset="0.45" stop-color="white"/>
<stop offset="1" stop-color="white" stop-opacity="0"/>
</linearGradient>
<clipPath id="clip0_4_2">
<rect width="280" height="95.5641" fill="white"/>
</clipPath>
</defs>
</svg>
